<svg width="176" height="176" viewBox="0 0 176 176" fill="none" xmlns="http://www.w3.org/2000/svg">
<path d="M103.4 62.3333L87.9997 46.9333L72.5997 62.3333L62.333 52.0667L77.733 36.6667L62.333 21.2667L72.5997 11L87.9997 26.4L103.4 11L113.666 21.2667L98.2663 36.6667L113.666 52.0667L103.4 62.3333ZM51.333 132C59.3997 132 65.9997 138.6 65.9997 146.667C65.9997 154.733 59.3997 161.333 51.333 161.333C43.2663 161.333 36.6663 154.733 36.6663 146.667C36.6663 138.6 43.2663 132 51.333 132ZM124.666 132C132.733 132 139.333 138.6 139.333 146.667C139.333 154.733 132.733 161.333 124.666 161.333C116.6 161.333 110 154.733 110 146.667C110 138.6 116.6 132 124.666 132ZM52.7997 108.533C52.7997 109.267 53.533 110 54.2663 110H139.333V124.667H51.333C43.2663 124.667 36.6663 118.067 36.6663 110C36.6663 107.067 37.3997 104.867 38.133 102.667L47.6663 85.0667L21.9997 29.3333H7.33301V14.6667H31.533L63.0663 80.6667H114.4L143 29.3333L155.466 36.6667L126.866 88C124.666 92.4 119.533 95.3333 114.4 95.3333H59.3997L52.7997 107.067V108.533Z" fill="#FE0000"/>
</svg>
